HIERARCHY
ROOT joint_Root
{
  OFFSET 0 0 0
  CHANNELS 6 Xposition Yposition Zposition Zrotation Xrotation Yrotation
  JOINT Hips
  {
    OFFSET 0.0408292 93.9915 0.0639531
    CHANNELS 6 Xposition Yposition Zposition Zrotation Xrotation Yrotation
    JOINT Spine
    {
      OFFSET 15.7357 0 0
      CHANNELS 6 Xposition Yposition Zposition Zrotation Xrotation Yrotation
      JOINT Chest
      {
        OFFSET 8.98455 -0.406207 0
        CHANNELS 6 Xposition Yposition Zposition Zrotation Xrotation Yrotation
        JOINT Neck
        {
          OFFSET 16.3773 0 0
          CHANNELS 6 Xposition Yposition Zposition Zrotation Xrotation Yrotation
          JOINT Head
          {
            OFFSET 6.45672 0 0
            CHANNELS 6 Xposition Yposition Zposition Zrotation Xrotation Yrotation
            End Site
            {
              OFFSET 10 0 0
            }
          }
        }
        JOINT Shoulder_L
        {
          OFFSET 12.9942 -0.242716 4.98039
          CHANNELS 6 Xposition Yposition Zposition Zrotation Xrotation Yrotation
          JOINT UpperArm_L
          {
            OFFSET 5.34809 0 0
            CHANNELS 6 Xposition Yposition Zposition Zrotation Xrotation Yrotation
            JOINT LowerArm_L
            {
              OFFSET 24.3286 1.87007e-05 0
              CHANNELS 6 Xposition Yposition Zposition Zrotation Xrotation Yrotation
              JOINT Hand_L
              {
                OFFSET 22.2916 0 0
                CHANNELS 6 Xposition Yposition Zposition Zrotation Xrotation Yrotation
                End Site
                {
                  OFFSET 5 0 0
                }
              }
            }
          }
        }
        JOINT Shoulder_R
        {
          OFFSET 12.9945 -0.242716 -4.98039
          CHANNELS 6 Xposition Yposition Zposition Zrotation Xrotation Yrotation
          JOINT UpperArm_R
          {
            OFFSET -5.34813 0 0
            CHANNELS 6 Xposition Yposition Zposition Zrotation Xrotation Yrotation
            JOINT LowerArm_R
            {
              OFFSET -24.3289 0.000322201 0
              CHANNELS 6 Xposition Yposition Zposition Zrotation Xrotation Yrotation
              JOINT Hand_R
              {
                OFFSET -22.2915 -0.000108084 0
                CHANNELS 6 Xposition Yposition Zposition Zrotation Xrotation Yrotation
                End Site
                {
                  OFFSET -5 0 0
                }
              }
            }
          }
        }
      }
    }
    JOINT UpperLeg_L
    {
      OFFSET -2.19248 -6.46944 0
      CHANNELS 6 Xposition Yposition Zposition Zrotation Xrotation Yrotation
      JOINT LowerLeg_L
      {
        OFFSET 39.0811 0 -1.23785e-05
        CHANNELS 6 Xposition Yposition Zposition Zrotation Xrotation Yrotation
        JOINT Foot_L
        {
          OFFSET 40.9854 0 -1.26872e-05
          CHANNELS 6 Xposition Yposition Zposition Zrotation Xrotation Yrotation
          JOINT Toes_L
          {
            OFFSET 11.7543 0 0
            CHANNELS 6 Xposition Yposition Zposition Zrotation Xrotation Yrotation
            End Site
            {
              OFFSET 5 0 0
            }
          }
        }
      }
    }
    JOINT UpperLeg_R
    {
      OFFSET -2.19251 6.46944 0
      CHANNELS 6 Xposition Yposition Zposition Zrotation Xrotation Yrotation
      JOINT LowerLeg_R
      {
        OFFSET -39.0811 0 0
        CHANNELS 6 Xposition Yposition Zposition Zrotation Xrotation Yrotation
        JOINT Foot_R
        {
          OFFSET -40.9854 0 0
          CHANNELS 6 Xposition Yposition Zposition Zrotation Xrotation Yrotation
          JOINT Toes_R
          {
            OFFSET -11.7543 0 0
            CHANNELS 6 Xposition Yposition Zposition Zrotation Xrotation Yrotation
            End Site
            {
              OFFSET -5 0 0
            }
          }
        }
      }
    }
  }
}
MOTION
Frames:	8
Frame Time:	0.0333333
0 0 0 0 0 -0 0.0408292 93.9915 0.0639531 90.2073 -14.3613 0.239477 15.7357 5.1072e-06 -5.51765e-07 -120.446 86.0691 122.945 8.98455 -0.406207 -4.3199e-07 -2.76012 2.09497 -0.862953 16.3773 -1.3905e-06 -6.99897e-07 -0.145131 4.50876 -0.44969 6.45672 -1.25837e-06 -1.02172e-07 3.97376 4.79948 -0.0950092 12.9942 -0.242716 4.98039 -89.9295 6.85635 -86.9872 5.34809 -7.22636e-06 -6.2814e-07 -66.4037 -32.7292 9.43049 24.3286 1.87007e-05 4.90208e-06 -2.36385e-05 4.6184e-06 -18.7708 22.2916 -9.88446e-07 4.63217e-06 11.4534 45.608 -0.842284 12.9945 -0.242716 -4.98039 89.8425 9.38405 -85.5445 -5.34813 -1.25947e-06 -3.79883e-06 -65.4073 -16.3669 11.5726 -24.3289 0.000322201 -8.65921e-06 0.00110628 -0.000306067 -25.3405 -22.2915 -0.000108084 -4.47941e-06 8.22198 35.3884 3.68013 -2.19248 -6.46944 -1.22534e-07 179.439 -3.85675 -1.38141 39.0811 -6.73843e-06 -1.23785e-05 2.31754e-15 -4.77083e-14 2.51283 40.9854 -6.48686e-06 -1.26872e-05 0.166093 -12.0089 -51.4896 11.7543 -2.30145e-07 3.05095e-06 -1.4823e-16 1.98785e-16 -16.5775 -2.19251 6.46944 -1.45247e-06 -175.608 -14.8612 -176.945 -39.0811 -2.22045e-16 0 -3.05176e-05 0 4.67496 -40.9854 7.72618e-06 5.99936e-06 -0.375145 -36.9081 -58.4489 -11.7543 -5.6619e-06 -5.58687e-06 4.26529e-15 3.18055e-15 -16.5775 
0 0 0 0 0 -0 0.0530525 94.0057 0.229702 90.234 -14.0962 -0.0824005 15.7357 5.1072e-06 -5.51765e-07 -120.791 86.2318 123.216 8.98455 -0.406207 -4.3199e-07 -2.58286 2.02351 -0.784897 16.3773 -1.3905e-06 -6.99897e-07 -1.09691 4.38809 -0.404692 6.45672 -1.25837e-06 -1.02172e-07 3.24526 4.8502 -0.295682 12.9942 -0.242716 4.98039 -89.898 6.92034 -87.1979 5.34809 -7.22636e-06 -6.2814e-07 -67.6316 -32.1779 7.76665 24.3286 1.87007e-05 4.90208e-06 -2.38437e-05 4.94202e-06 -19.9637 22.2916 -9.88446e-07 4.63217e-06 11.4983 46.8055 -0.295334 12.9945 -0.242716 -4.98039 89.8555 9.46407 -85.6614 -5.34813 -1.25947e-06 -3.79883e-06 -66.1239 -14.8229 9.85169 -24.3289 0.000322201 -8.65921e-06 0.00107802 -0.000301694 -25.3117 -22.2915 -0.000108084 -4.47941e-06 7.9641 34.1188 4.26675 -2.19248 -6.46944 -1.22534e-07 179.354 -4.34382 -1.62554 39.0811 -6.73843e-06 -1.23785e-05 1.30114e-15 -3.02153e-14 2.51284 40.9854 -6.48686e-06 -1.26872e-05 0.196816 -11.2544 -51.5086 11.7543 -2.30145e-07 3.05095e-06 -2.07406e-16 0 -16.5775 -2.19251 6.46944 -1.45247e-06 -175.711 -14.7772 -177.166 -39.0811 0 0 -3.05176e-05 -1.98785e-16 4.67496 -40.9854 7.72618e-06 5.99936e-06 -0.484213 -37.0629 -58.6192 -11.7543 -5.6619e-06 -5.58687e-06 0 0 -16.7998 
0 0 0 0 0 -0 0.0677696 94.0241 0.391789 90.257 -13.9307 -0.388489 15.7357 5.1072e-06 -5.51765e-07 -121.651 86.4115 123.976 8.98455 -0.406207 -4.3199e-07 -2.36608 1.96782 -0.698504 16.3773 -1.3905e-06 -6.99897e-07 -2.07559 4.2794 -0.322971 6.45672 -1.25837e-06 -1.02172e-07 2.53167 4.85526 -0.469215 12.9942 -0.242716 4.98039 -89.8624 6.96759 -87.438 5.34809 -7.22636e-06 -6.2814e-07 -69.1355 -31.0473 6.5948 24.3286 1.87007e-05 4.90208e-06 -2.56847e-05 6.05472e-06 -23.1567 22.2916 -9.88446e-07 4.63217e-06 9.91904 49.0729 0.973087 12.9945 -0.242716 -4.98039 89.8744 9.53358 -85.8076 -5.34813 -1.25947e-06 -3.79883e-06 -66.9961 -12.2449 8.48918 -24.3289 0.000322201 -8.65921e-06 0.00108583 -0.000324974 -26.9731 -22.2915 -0.000108084 -4.47941e-06 6.71617 33.2495 5.24422 -2.19248 -6.46944 -1.22534e-07 179.27 -4.86856 -1.84833 39.0811 -6.73843e-06 -1.23785e-05 1.44074e-15 -3.33958e-14 2.51288 40.9854 -6.48686e-06 -1.26872e-05 0.225765 -10.5613 -51.5202 11.7543 -2.30145e-07 3.05095e-06 -2.07406e-16 0 -16.5775 -2.19251 6.46944 -1.45247e-06 -175.816 -14.6838 -177.373 -39.0811 0 0 -3.05176e-05 -9.93923e-17 4.67496 -40.9854 7.72618e-06 5.99936e-06 -0.584771 -37.1103 -58.7778 -11.7543 -5.6619e-06 -5.58687e-06 0 0 -17.0117 
0 0 0 0 0 -0 0.0863982 94.0455 0.535995 90.2782 -13.8501 -0.687844 15.7357 5.1072e-06 -5.51765e-07 -122.814 86.6097 125.005 8.98455 -0.406207 -4.3199e-07 -2.12815 1.91101 -0.598897 16.3773 -1.3905e-06 -6.99897e-07 -3.06158 4.18421 -0.201892 6.45672 -1.25837e-06 -1.02172e-07 1.85236 4.82714 -0.611879 12.9942 -0.242716 4.98039 -89.8244 6.9684 -87.6993 5.34809 -7.22636e-06 -6.2814e-07 -70.7911 -29.0114 5.8263 24.3286 1.87007e-05 4.90208e-06 -2.79894e-05 7.83711e-06 -27.9962 22.2916 -9.88446e-07 4.63217e-06 6.3548 52.1592 3.22095 12.9945 -0.242716 -4.98039 89.8985 9.58385 -85.9742 -5.34813 -1.25947e-06 -3.79883e-06 -67.8408 -8.23925 7.48338 -24.3289 0.000322201 -8.65921e-06 0.00109498 -0.000372193 -30.2747 -22.2915 -0.000108084 -4.47941e-06 4.19933 32.8962 6.41383 -2.19248 -6.46944 -1.22534e-07 179.184 -5.40057 -2.071 39.0811 -6.73843e-06 -1.23785e-05 2.35774e-15 -5.08889e-14 2.51295 40.9854 -6.48686e-06 -1.26872e-05 0.254322 -9.94511 -51.5187 11.7543 -2.30145e-07 3.05095e-06 -3.55636e-16 1.98785e-16 -16.5775 -2.19251 6.46944 -1.45247e-06 -175.927 -14.5934 -177.588 -39.0811 9.99201e-16 0 -3.05176e-05 9.93923e-17 4.67496 -40.9854 7.72618e-06 5.99936e-06 -0.671675 -37.0764 -58.9123 -11.7543 -5.6619e-06 -5.58687e-06 4.31435e-15 3.18055e-15 -17.2044 
0 0 0 0 0 -0 0.108599 94.0671 0.649222 90.2944 -13.8149 -1.0089 15.7357 5.1072e-06 -5.51765e-07 -123.543 86.8223 125.571 8.98455 -0.406207 -4.3199e-07 -1.89898 1.81833 -0.476377 16.3773 -1.3905e-06 -6.99897e-07 -4.0055 4.11039 -0.0617716 6.45672 -1.25837e-06 -1.02172e-07 1.20393 4.82227 -0.725087 12.9942 -0.242716 4.98039 -89.7882 6.89053 -87.962 5.34809 -7.22636e-06 -6.2814e-07 -72.3826 -25.7093 5.37885 24.3286 1.87007e-05 4.90208e-06 -2.94802e-05 9.97825e-06 -34.0325 22.2916 -9.88446e-07 4.63217e-06 0.0856419 55.4479 7.41846 12.9945 -0.242716 -4.98039 89.9252 9.59613 -86.1396 -5.34813 -1.25947e-06 -3.79883e-06 -68.3973 -2.5067 6.65661 -24.3289 0.000322201 -8.65921e-06 0.00113404 -0.000431231 -34.8517 -22.2915 -0.000108084 -4.47941e-06 0.637798 32.6331 7.78071 -2.19248 -6.46944 -1.22534e-07 179.098 -5.91822 -2.33423 39.0811 -6.73843e-06 -1.23785e-05 2.1934e-15 -4.77083e-14 2.51309 40.9854 -6.48686e-06 -1.26872e-05 0.28385 -9.38773 -51.5063 11.7543 -2.30145e-07 3.05095e-06 6.22217e-16 0 -16.5775 -2.19251 6.46944 -1.45247e-06 -176.043 -14.5281 -177.848 -39.0811 -2.22045e-16 0 -3.05176e-05 -9.93923e-17 4.67496 -40.9854 7.72618e-06 5.99936e-06 -0.74162 -37.0211 -59.0134 -11.7543 -5.6619e-06 -5.58687e-06 -9.99797e-15 0 -17.3771 
0 0 0 0 0 -0 0.13888 94.0867 0.731168 90.3175 -13.7744 -1.35396 15.7357 5.1072e-06 -5.51765e-07 -123.405 87.0343 125.246 8.98455 -0.406207 -4.3199e-07 -1.70424 1.68427 -0.322113 16.3773 -1.3905e-06 -6.99897e-07 -4.83903 4.07029 0.0610367 6.45672 -1.25837e-06 -1.02172e-07 0.594562 4.8457 -0.805021 12.9942 -0.242716 4.98039 -89.758 6.72935 -88.2 5.34809 -7.22636e-06 -6.2814e-07 -73.7189 -21.025 5.33245 24.3286 1.87007e-05 4.90208e-06 -2.83011e-05 1.2295e-05 -42.9682 22.2916 -9.88446e-07 4.63217e-06 -10.2343 57.765 14.9765 12.9945 -0.242716 -4.98039 89.952 9.55192 -86.2831 -5.34813 -1.25947e-06 -3.79883e-06 -68.379 4.84569 5.84328 -24.3289 0.000322201 -8.65921e-06 0.0010798 -0.000489024 -40.3571 -22.2915 -0.000108084 -4.47941e-06 -3.34602 32.0531 9.00133 -2.19248 -6.46944 -1.22534e-07 178.996 -6.38499 -2.64801 39.0811 -6.73843e-06 -1.23785e-05 2.97666e-15 -6.83819e-14 2.5133 40.9854 -6.48686e-06 -1.26872e-05 0.319334 -8.87439 -51.4923 11.7543 -2.30145e-07 3.05095e-06 -1.1835e-16 -3.97569e-16 -16.5775 -2.19251 6.46944 -1.45247e-06 -176.176 -14.5039 -178.159 -39.0811 -4.44089e-16 0 -3.05176e-05 -1.98785e-16 4.67496 -40.9854 7.72618e-06 5.99936e-06 -0.803389 -37.0111 -59.0859 -11.7543 -5.6619e-06 -5.58687e-06 -3.65906e-15 9.54166e-15 -17.5155 
0 0 0 0 0 -0 0.17968 94.1022 0.789822 90.3671 -13.678 -1.683 15.7357 5.1072e-06 -5.51765e-07 -122.36 87.2504 123.987 8.98455 -0.406207 -4.3199e-07 -1.56728 1.51213 -0.134842 16.3773 -1.3905e-06 -6.99897e-07 -5.49803 4.06909 0.135716 6.45672 -1.25837e-06 -1.02172e-07 0.0703421 4.89029 -0.850102 12.9942 -0.242716 4.98039 -89.7372 6.52391 -88.3843 5.34809 -7.22636e-06 -6.2814e-07 -74.4281 -14.9344 5.52533 24.3286 1.87007e-05 4.90208e-06 -2.44383e-05 1.36825e-05 -53.2461 22.2916 -9.88446e-07 4.63217e-06 -21.8063 57.7042 23.2835 12.9945 -0.242716 -4.98039 89.9743 9.46999 -86.3858 -5.34813 -1.25947e-06 -3.79883e-06 -67.4722 13.4881 4.84349 -24.3289 0.000322201 -8.65921e-06 0.000991414 -0.000535917 -46.5124 -22.2915 -0.000108084 -4.47941e-06 -7.24107 31.1649 9.6136 -2.19248 -6.46944 -1.22534e-07 178.86 -6.75224 -2.9738 39.0811 -6.73843e-06 -1.23785e-05 3.41557e-15 -7.55382e-14 2.51364 40.9854 -6.48686e-06 -1.26872e-05 0.363666 -8.40308 -51.4768 11.7543 -2.30145e-07 3.05095e-06 -8.90552e-17 3.97569e-16 -16.5775 -2.19251 6.46944 -1.45247e-06 -176.332 -14.5235 -178.477 -39.0811 -6.66134e-16 0 -3.05176e-05 -1.98785e-16 4.67496 -40.9854 7.72618e-06 5.99936e-06 -0.869044 -37.1023 -59.1441 -11.7543 -5.6619e-06 -5.58687e-06 -3.33686e-15 0 -17.606 
0 0 0 0 0 -0 0.227368 94.1126 0.830804 90.4462 -13.4938 -1.95186 15.7357 5.1072e-06 -5.51765e-07 -120.76 87.4784 122.164 8.98455 -0.406207 -4.3199e-07 -1.50481 1.31899 0.0721933 16.3773 -1.3905e-06 -6.99897e-07 -5.9433 4.0983 0.152611 6.45672 -1.25837e-06 -1.02172e-07 -0.314397 4.93567 -0.866568 12.9942 -0.242716 4.98039 -89.7258 6.32857 -88.5044 5.34809 -7.22636e-06 -6.2814e-07 -74.1192 -7.24575 5.90309 24.3286 1.87007e-05 4.90208e-06 -1.94066e-05 1.36574e-05 -63.1328 22.2916 -9.88446e-07 4.63217e-06 -29.2108 55.1748 27.5518 12.9945 -0.242716 -4.98039 89.9886 9.38831 -86.4414 -5.34813 -1.25947e-06 -3.79883e-06 -65.2338 22.7847 3.1139 -24.3289 0.000322201 -8.65921e-06 0.000802387 -0.000558549 -54.5508 -22.2915 -0.000108084 -4.47941e-06 -11.2853 30.0402 9.93099 -2.19248 -6.46944 -1.22534e-07 178.698 -6.99851 -3.26342 39.0811 -6.73843e-06 -1.23785e-05 3.41621e-15 -7.55382e-14 2.51412 40.9854 -6.48686e-06 -1.26872e-05 0.414634 -7.96357 -51.4538 11.7543 -2.30145e-07 3.05095e-06 -2.07406e-16 0 -16.5775 -2.19251 6.46944 -1.45247e-06 -176.499 -14.5745 -178.751 -39.0811 -8.88178e-16 8.88178e-16 -3.05176e-05 1.98785e-16 4.67496 -40.9854 7.72618e-06 5.99936e-06 -0.942297 -37.3179 -59.1982 -11.7543 -5.6619e-06 -5.58687e-06 4.35013e-15 3.18055e-15 -17.6559 
